<mxfile host="app.diagrams.net" agent="Mozilla/5.0 (Windows NT 10.0; Win64; x64) AppleWebKit/537.36 (KHTML, like Gecko) Chrome/131.0.0.0 Safari/537.36" version="24.9.1">
  <diagram name="Page-1" id="z8mxLUUFdMarW_J0e7Pf">
    <mxGraphModel dx="1621" dy="412" grid="1" gridSize="10" guides="1" tooltips="1" connect="1" arrows="1" fold="1" page="1" pageScale="1" pageWidth="827" pageHeight="1169" math="0" shadow="0">
      <root>
        <mxCell id="0" />
        <mxCell id="1" parent="0" />
        <mxCell id="KUbMywDeBo122vvu8ljF-25" value="" style="group" vertex="1" connectable="0" parent="1">
          <mxGeometry x="60" y="310" width="730" height="510" as="geometry" />
        </mxCell>
        <mxCell id="KUbMywDeBo122vvu8ljF-23" value="" style="rounded=0;whiteSpace=wrap;html=1;" vertex="1" parent="KUbMywDeBo122vvu8ljF-25">
          <mxGeometry width="730" height="510" as="geometry" />
        </mxCell>
        <mxCell id="KUbMywDeBo122vvu8ljF-24" value="TopModule" style="text;html=1;align=center;verticalAlign=middle;whiteSpace=wrap;rounded=0;" vertex="1" parent="KUbMywDeBo122vvu8ljF-25">
          <mxGeometry x="336.3544303797468" y="14.299065420560746" width="55.44303797468354" height="14.299065420560746" as="geometry" />
        </mxCell>
        <mxCell id="KUbMywDeBo122vvu8ljF-12" value="" style="group" vertex="1" connectable="0" parent="KUbMywDeBo122vvu8ljF-25">
          <mxGeometry x="509.99701298701297" y="183.00142857142856" width="151.68831168831167" height="91.07142857142857" as="geometry" />
        </mxCell>
        <mxCell id="KUbMywDeBo122vvu8ljF-10" value="" style="rounded=0;whiteSpace=wrap;html=1;" vertex="1" parent="KUbMywDeBo122vvu8ljF-12">
          <mxGeometry width="151.68831168831167" height="91.07142857142857" as="geometry" />
        </mxCell>
        <mxCell id="KUbMywDeBo122vvu8ljF-11" value="PixelGenerator" style="text;html=1;align=center;verticalAlign=middle;whiteSpace=wrap;rounded=0;" vertex="1" parent="KUbMywDeBo122vvu8ljF-12">
          <mxGeometry x="37.92207792207792" width="75.84415584415584" height="45.535714285714285" as="geometry" />
        </mxCell>
        <mxCell id="KUbMywDeBo122vvu8ljF-8" value="" style="group" vertex="1" connectable="0" parent="KUbMywDeBo122vvu8ljF-25">
          <mxGeometry x="149.9962337662338" y="280.00428571428574" width="170.64935064935065" height="91.07142857142857" as="geometry" />
        </mxCell>
        <mxCell id="KUbMywDeBo122vvu8ljF-6" value="" style="rounded=0;whiteSpace=wrap;html=1;" vertex="1" parent="KUbMywDeBo122vvu8ljF-8">
          <mxGeometry width="170.64935064935065" height="91.07142857142857" as="geometry" />
        </mxCell>
        <mxCell id="KUbMywDeBo122vvu8ljF-7" value="VGA_Controller" style="text;html=1;align=center;verticalAlign=middle;whiteSpace=wrap;rounded=0;" vertex="1" parent="KUbMywDeBo122vvu8ljF-8">
          <mxGeometry x="42.66233766233766" y="10.119047619047619" width="85.32467532467533" height="30.357142857142858" as="geometry" />
        </mxCell>
        <mxCell id="KUbMywDeBo122vvu8ljF-17" value="" style="group" vertex="1" connectable="0" parent="KUbMywDeBo122vvu8ljF-25">
          <mxGeometry x="184.08" y="100" width="120" height="60" as="geometry" />
        </mxCell>
        <mxCell id="KUbMywDeBo122vvu8ljF-20" value="" style="group" vertex="1" connectable="0" parent="KUbMywDeBo122vvu8ljF-17">
          <mxGeometry x="-112.01999999999998" y="20" width="180" height="40" as="geometry" />
        </mxCell>
        <mxCell id="KUbMywDeBo122vvu8ljF-21" value="" style="group" vertex="1" connectable="0" parent="KUbMywDeBo122vvu8ljF-20">
          <mxGeometry y="-13.333333333333336" width="180" height="53.33333333333334" as="geometry" />
        </mxCell>
        <mxCell id="KUbMywDeBo122vvu8ljF-18" value="" style="rounded=0;whiteSpace=wrap;html=1;" vertex="1" parent="KUbMywDeBo122vvu8ljF-21">
          <mxGeometry width="180" height="53.33333333333334" as="geometry" />
        </mxCell>
        <mxCell id="KUbMywDeBo122vvu8ljF-19" value="&lt;span style=&quot;background-color: initial;&quot;&gt;BSynchronizer&lt;/span&gt;" style="text;html=1;align=center;verticalAlign=middle;whiteSpace=wrap;rounded=0;" vertex="1" parent="KUbMywDeBo122vvu8ljF-21">
          <mxGeometry x="45" y="8.888888888888891" width="90" height="26.66666666666667" as="geometry" />
        </mxCell>
        <mxCell id="KUbMywDeBo122vvu8ljF-74" value="" style="endArrow=none;html=1;rounded=0;exitX=0.431;exitY=1.023;exitDx=0;exitDy=0;exitPerimeter=0;fillColor=#d5e8d4;strokeColor=#82b366;endFill=0;startArrow=classic;startFill=1;" edge="1" parent="KUbMywDeBo122vvu8ljF-21" source="KUbMywDeBo122vvu8ljF-18">
          <mxGeometry width="50" height="50" relative="1" as="geometry">
            <mxPoint x="67.93999999999997" y="83.33333333333331" as="sourcePoint" />
            <mxPoint x="77.93999999999997" y="83.33333333333331" as="targetPoint" />
          </mxGeometry>
        </mxCell>
        <mxCell id="KUbMywDeBo122vvu8ljF-26" value="" style="group" vertex="1" connectable="0" parent="KUbMywDeBo122vvu8ljF-25">
          <mxGeometry x="340" y="100" width="120" height="60" as="geometry" />
        </mxCell>
        <mxCell id="KUbMywDeBo122vvu8ljF-34" value="" style="group" vertex="1" connectable="0" parent="KUbMywDeBo122vvu8ljF-26">
          <mxGeometry x="-10" width="120" height="60" as="geometry" />
        </mxCell>
        <mxCell id="KUbMywDeBo122vvu8ljF-14" value="" style="rounded=0;whiteSpace=wrap;html=1;" vertex="1" parent="KUbMywDeBo122vvu8ljF-34">
          <mxGeometry width="120" height="60" as="geometry" />
        </mxCell>
        <mxCell id="KUbMywDeBo122vvu8ljF-15" value="Debouncer" style="text;html=1;align=center;verticalAlign=middle;whiteSpace=wrap;rounded=0;" vertex="1" parent="KUbMywDeBo122vvu8ljF-34">
          <mxGeometry x="30" y="10" width="60" height="30" as="geometry" />
        </mxCell>
        <mxCell id="KUbMywDeBo122vvu8ljF-16" style="edgeStyle=orthogonalEdgeStyle;rounded=0;orthogonalLoop=1;jettySize=auto;html=1;exitX=0.5;exitY=1;exitDx=0;exitDy=0;" edge="1" parent="KUbMywDeBo122vvu8ljF-34" source="KUbMywDeBo122vvu8ljF-15" target="KUbMywDeBo122vvu8ljF-15">
          <mxGeometry relative="1" as="geometry" />
        </mxCell>
        <mxCell id="KUbMywDeBo122vvu8ljF-32" value="" style="endArrow=classicThin;html=1;rounded=0;entryX=0;entryY=0.5;entryDx=0;entryDy=0;exitX=1.002;exitY=0.424;exitDx=0;exitDy=0;exitPerimeter=0;fillColor=#d5e8d4;strokeColor=#82b366;endFill=1;" edge="1" parent="KUbMywDeBo122vvu8ljF-25" source="KUbMywDeBo122vvu8ljF-18" target="KUbMywDeBo122vvu8ljF-14">
          <mxGeometry width="50" height="50" relative="1" as="geometry">
            <mxPoint x="270" y="120" as="sourcePoint" />
            <mxPoint x="150" y="90" as="targetPoint" />
          </mxGeometry>
        </mxCell>
        <mxCell id="KUbMywDeBo122vvu8ljF-36" value="" style="endArrow=none;html=1;rounded=0;entryX=1;entryY=0.5;entryDx=0;entryDy=0;exitX=0.5;exitY=0;exitDx=0;exitDy=0;fillColor=#d5e8d4;strokeColor=#82b366;" edge="1" parent="KUbMywDeBo122vvu8ljF-25" source="KUbMywDeBo122vvu8ljF-11" target="KUbMywDeBo122vvu8ljF-14">
          <mxGeometry width="50" height="50" relative="1" as="geometry">
            <mxPoint x="310" y="150" as="sourcePoint" />
            <mxPoint x="360" y="100" as="targetPoint" />
            <Array as="points">
              <mxPoint x="586" y="130" />
            </Array>
          </mxGeometry>
        </mxCell>
        <mxCell id="KUbMywDeBo122vvu8ljF-82" value="up" style="edgeLabel;html=1;align=center;verticalAlign=middle;resizable=0;points=[];" vertex="1" connectable="0" parent="KUbMywDeBo122vvu8ljF-36">
          <mxGeometry x="0.2906" y="4" relative="1" as="geometry">
            <mxPoint as="offset" />
          </mxGeometry>
        </mxCell>
        <mxCell id="KUbMywDeBo122vvu8ljF-78" value="" style="endArrow=classic;html=1;rounded=0;entryX=-0.005;entryY=0.612;entryDx=0;entryDy=0;exitX=1;exitY=0.25;exitDx=0;exitDy=0;entryPerimeter=0;fillColor=#d5e8d4;strokeColor=#82b366;endFill=1;" edge="1" parent="KUbMywDeBo122vvu8ljF-25">
          <mxGeometry width="50" height="50" relative="1" as="geometry">
            <mxPoint x="321.40558441558437" y="314.03214285714284" as="sourcePoint" />
            <mxPoint x="509.9985714285715" y="249.99714285714276" as="targetPoint" />
            <Array as="points">
              <mxPoint x="450.76" y="314.26" />
              <mxPoint x="450.76" y="250.26" />
            </Array>
          </mxGeometry>
        </mxCell>
        <mxCell id="KUbMywDeBo122vvu8ljF-80" value="x" style="edgeLabel;html=1;align=center;verticalAlign=middle;resizable=0;points=[];" vertex="1" connectable="0" parent="KUbMywDeBo122vvu8ljF-78">
          <mxGeometry x="-0.3594" y="1" relative="1" as="geometry">
            <mxPoint as="offset" />
          </mxGeometry>
        </mxCell>
        <mxCell id="KUbMywDeBo122vvu8ljF-90" value="10bit" style="edgeLabel;html=1;align=center;verticalAlign=middle;resizable=0;points=[];" vertex="1" connectable="0" parent="KUbMywDeBo122vvu8ljF-78">
          <mxGeometry x="-0.1895" y="-3" relative="1" as="geometry">
            <mxPoint as="offset" />
          </mxGeometry>
        </mxCell>
        <mxCell id="KUbMywDeBo122vvu8ljF-79" value="" style="endArrow=classic;html=1;rounded=0;exitX=1;exitY=0.5;exitDx=0;exitDy=0;entryX=0;entryY=0.75;entryDx=0;entryDy=0;fillColor=#d5e8d4;strokeColor=#82b366;startArrow=none;startFill=0;endFill=1;" edge="1" parent="KUbMywDeBo122vvu8ljF-25">
          <mxGeometry width="50" height="50" relative="1" as="geometry">
            <mxPoint x="320.6455844155844" y="334.53999999999996" as="sourcePoint" />
            <mxPoint x="509.997012987013" y="260.30499999999995" as="targetPoint" />
            <Array as="points">
              <mxPoint x="470" y="335" />
              <mxPoint x="470" y="260" />
            </Array>
          </mxGeometry>
        </mxCell>
        <mxCell id="KUbMywDeBo122vvu8ljF-81" value="y" style="edgeLabel;html=1;align=center;verticalAlign=middle;resizable=0;points=[];" vertex="1" connectable="0" parent="KUbMywDeBo122vvu8ljF-79">
          <mxGeometry x="-0.3864" y="-2" relative="1" as="geometry">
            <mxPoint as="offset" />
          </mxGeometry>
        </mxCell>
        <mxCell id="KUbMywDeBo122vvu8ljF-91" value="10bit" style="edgeLabel;html=1;align=center;verticalAlign=middle;resizable=0;points=[];" vertex="1" connectable="0" parent="KUbMywDeBo122vvu8ljF-79">
          <mxGeometry x="-0.15" relative="1" as="geometry">
            <mxPoint as="offset" />
          </mxGeometry>
        </mxCell>
        <mxCell id="KUbMywDeBo122vvu8ljF-83" value="" style="endArrow=none;html=1;rounded=0;exitX=1;exitY=0.25;exitDx=0;exitDy=0;entryX=0.646;entryY=-0.008;entryDx=0;entryDy=0;entryPerimeter=0;fillColor=#d5e8d4;strokeColor=#82b366;" edge="1" parent="KUbMywDeBo122vvu8ljF-25" source="KUbMywDeBo122vvu8ljF-14" target="KUbMywDeBo122vvu8ljF-10">
          <mxGeometry width="50" height="50" relative="1" as="geometry">
            <mxPoint x="230" y="90" as="sourcePoint" />
            <mxPoint x="280" y="40" as="targetPoint" />
            <Array as="points">
              <mxPoint x="608" y="115" />
            </Array>
          </mxGeometry>
        </mxCell>
        <mxCell id="KUbMywDeBo122vvu8ljF-84" value="down" style="edgeLabel;html=1;align=center;verticalAlign=middle;resizable=0;points=[];" vertex="1" connectable="0" parent="KUbMywDeBo122vvu8ljF-83">
          <mxGeometry x="-0.551" y="-3" relative="1" as="geometry">
            <mxPoint as="offset" />
          </mxGeometry>
        </mxCell>
        <mxCell id="KUbMywDeBo122vvu8ljF-85" value="" style="endArrow=none;html=1;rounded=0;entryX=0.25;entryY=0;entryDx=0;entryDy=0;exitX=1;exitY=0.75;exitDx=0;exitDy=0;fillColor=#d5e8d4;strokeColor=#82b366;" edge="1" parent="KUbMywDeBo122vvu8ljF-25" source="KUbMywDeBo122vvu8ljF-14" target="KUbMywDeBo122vvu8ljF-11">
          <mxGeometry width="50" height="50" relative="1" as="geometry">
            <mxPoint x="230" y="90" as="sourcePoint" />
            <mxPoint x="280" y="40" as="targetPoint" />
            <Array as="points">
              <mxPoint x="567" y="145" />
            </Array>
          </mxGeometry>
        </mxCell>
        <mxCell id="KUbMywDeBo122vvu8ljF-86" value="Reset" style="edgeLabel;html=1;align=center;verticalAlign=middle;resizable=0;points=[];" vertex="1" connectable="0" parent="KUbMywDeBo122vvu8ljF-85">
          <mxGeometry x="0.1686" relative="1" as="geometry">
            <mxPoint as="offset" />
          </mxGeometry>
        </mxCell>
        <mxCell id="KUbMywDeBo122vvu8ljF-88" value="" style="endArrow=none;html=1;rounded=0;entryX=1;entryY=0.548;entryDx=0;entryDy=0;entryPerimeter=0;fillColor=#f8cecc;strokeColor=#b85450;startArrow=classic;startFill=1;" edge="1" parent="KUbMywDeBo122vvu8ljF-25">
          <mxGeometry width="50" height="50" relative="1" as="geometry">
            <mxPoint x="320.65" y="350.09000000000003" as="sourcePoint" />
            <mxPoint x="411.29558441558436" y="350.0014285714286" as="targetPoint" />
          </mxGeometry>
        </mxCell>
        <mxCell id="KUbMywDeBo122vvu8ljF-89" value="Reset" style="edgeLabel;html=1;align=center;verticalAlign=middle;resizable=0;points=[];" vertex="1" connectable="0" parent="KUbMywDeBo122vvu8ljF-88">
          <mxGeometry x="-0.4908" y="-1" relative="1" as="geometry">
            <mxPoint as="offset" />
          </mxGeometry>
        </mxCell>
        <mxCell id="KUbMywDeBo122vvu8ljF-77" value="" style="endArrow=classic;html=1;rounded=0;entryX=0;entryY=0.5;entryDx=0;entryDy=0;fillColor=#d5e8d4;strokeColor=#82b366;endFill=1;" edge="1" parent="KUbMywDeBo122vvu8ljF-25">
          <mxGeometry width="50" height="50" relative="1" as="geometry">
            <mxPoint x="219.08" y="220.46000000000004" as="sourcePoint" />
            <mxPoint x="509.077012987013" y="219.99714285714288" as="targetPoint" />
          </mxGeometry>
        </mxCell>
        <mxCell id="KUbMywDeBo122vvu8ljF-5" value="" style="group" vertex="1" connectable="0" parent="1">
          <mxGeometry x="-240" y="410" width="210" height="100" as="geometry" />
        </mxCell>
        <mxCell id="KUbMywDeBo122vvu8ljF-1" value="" style="rounded=0;whiteSpace=wrap;html=1;" vertex="1" parent="KUbMywDeBo122vvu8ljF-5">
          <mxGeometry width="210" height="100" as="geometry" />
        </mxCell>
        <mxCell id="KUbMywDeBo122vvu8ljF-2" value="Basys3" style="text;html=1;align=center;verticalAlign=middle;whiteSpace=wrap;rounded=0;" vertex="1" parent="KUbMywDeBo122vvu8ljF-5">
          <mxGeometry x="60" y="10" width="90" height="30" as="geometry" />
        </mxCell>
        <mxCell id="KUbMywDeBo122vvu8ljF-27" value="" style="endArrow=none;html=1;rounded=0;exitX=0.994;exitY=0.126;exitDx=0;exitDy=0;exitPerimeter=0;entryX=0.001;entryY=0.22;entryDx=0;entryDy=0;entryPerimeter=0;fillColor=#d5e8d4;strokeColor=#82b366;" edge="1" parent="1" source="KUbMywDeBo122vvu8ljF-1" target="KUbMywDeBo122vvu8ljF-23">
          <mxGeometry width="50" height="50" relative="1" as="geometry">
            <mxPoint x="20" y="430" as="sourcePoint" />
            <mxPoint x="70" y="380" as="targetPoint" />
          </mxGeometry>
        </mxCell>
        <mxCell id="KUbMywDeBo122vvu8ljF-29" value="Buttons" style="edgeLabel;html=1;align=center;verticalAlign=middle;resizable=0;points=[];" vertex="1" connectable="0" parent="KUbMywDeBo122vvu8ljF-27">
          <mxGeometry x="0.1012" relative="1" as="geometry">
            <mxPoint as="offset" />
          </mxGeometry>
        </mxCell>
        <mxCell id="KUbMywDeBo122vvu8ljF-28" value="" style="endArrow=classic;html=1;rounded=0;exitX=0.001;exitY=0.221;exitDx=0;exitDy=0;exitPerimeter=0;fillColor=#d5e8d4;strokeColor=#82b366;endFill=1;" edge="1" parent="1" source="KUbMywDeBo122vvu8ljF-23">
          <mxGeometry width="50" height="50" relative="1" as="geometry">
            <mxPoint x="61" y="420" as="sourcePoint" />
            <mxPoint x="130" y="440" as="targetPoint" />
            <Array as="points">
              <mxPoint x="110" y="423" />
              <mxPoint x="110" y="440" />
            </Array>
          </mxGeometry>
        </mxCell>
        <mxCell id="KUbMywDeBo122vvu8ljF-37" value="" style="endArrow=none;html=1;rounded=0;exitX=1;exitY=0.5;exitDx=0;exitDy=0;entryX=0;entryY=0.25;entryDx=0;entryDy=0;fillColor=#f8cecc;strokeColor=#b85450;startArrow=classic;startFill=1;" edge="1" parent="1" source="KUbMywDeBo122vvu8ljF-1" target="KUbMywDeBo122vvu8ljF-6">
          <mxGeometry width="50" height="50" relative="1" as="geometry">
            <mxPoint x="330" y="520" as="sourcePoint" />
            <mxPoint x="380" y="470" as="targetPoint" />
            <Array as="points">
              <mxPoint x="50" y="460" />
              <mxPoint x="50" y="530" />
              <mxPoint x="180" y="530" />
              <mxPoint x="180" y="613" />
            </Array>
          </mxGeometry>
        </mxCell>
        <mxCell id="KUbMywDeBo122vvu8ljF-60" value="Hsync" style="edgeLabel;html=1;align=center;verticalAlign=middle;resizable=0;points=[];" vertex="1" connectable="0" parent="KUbMywDeBo122vvu8ljF-37">
          <mxGeometry x="-0.7455" y="3" relative="1" as="geometry">
            <mxPoint as="offset" />
          </mxGeometry>
        </mxCell>
        <mxCell id="KUbMywDeBo122vvu8ljF-59" value="" style="endArrow=none;html=1;rounded=0;exitX=1;exitY=0.608;exitDx=0;exitDy=0;exitPerimeter=0;fillColor=#f8cecc;strokeColor=#b85450;startArrow=classic;startFill=1;" edge="1" parent="1" source="KUbMywDeBo122vvu8ljF-1">
          <mxGeometry width="50" height="50" relative="1" as="geometry">
            <mxPoint x="-30" y="475" as="sourcePoint" />
            <mxPoint x="210" y="623" as="targetPoint" />
            <Array as="points">
              <mxPoint x="40" y="470" />
              <mxPoint x="40" y="540" />
              <mxPoint x="170" y="540" />
              <mxPoint x="170" y="623" />
            </Array>
          </mxGeometry>
        </mxCell>
        <mxCell id="KUbMywDeBo122vvu8ljF-61" value="Vsync" style="edgeLabel;html=1;align=center;verticalAlign=middle;resizable=0;points=[];" vertex="1" connectable="0" parent="KUbMywDeBo122vvu8ljF-59">
          <mxGeometry x="-0.8345" y="2" relative="1" as="geometry">
            <mxPoint as="offset" />
          </mxGeometry>
        </mxCell>
        <mxCell id="KUbMywDeBo122vvu8ljF-62" value="" style="group" vertex="1" connectable="0" parent="1">
          <mxGeometry x="560" y="860" width="210" height="100" as="geometry" />
        </mxCell>
        <mxCell id="KUbMywDeBo122vvu8ljF-63" value="" style="rounded=0;whiteSpace=wrap;html=1;" vertex="1" parent="KUbMywDeBo122vvu8ljF-62">
          <mxGeometry width="210" height="100" as="geometry" />
        </mxCell>
        <mxCell id="KUbMywDeBo122vvu8ljF-64" value="Basys3" style="text;html=1;align=center;verticalAlign=middle;whiteSpace=wrap;rounded=0;" vertex="1" parent="KUbMywDeBo122vvu8ljF-62">
          <mxGeometry x="60" y="10" width="90" height="30" as="geometry" />
        </mxCell>
        <mxCell id="KUbMywDeBo122vvu8ljF-69" style="edgeStyle=orthogonalEdgeStyle;rounded=0;orthogonalLoop=1;jettySize=auto;html=1;entryX=0.25;entryY=0;entryDx=0;entryDy=0;endArrow=classicThin;endFill=1;fillColor=#f8cecc;strokeColor=#b85450;" edge="1" parent="1" target="KUbMywDeBo122vvu8ljF-63">
          <mxGeometry relative="1" as="geometry">
            <mxPoint x="608.4117647058824" y="860" as="targetPoint" />
            <mxPoint x="613" y="584" as="sourcePoint" />
          </mxGeometry>
        </mxCell>
        <mxCell id="KUbMywDeBo122vvu8ljF-70" value="RGB&lt;div&gt;12-bit&lt;/div&gt;" style="edgeLabel;html=1;align=center;verticalAlign=middle;resizable=0;points=[];" vertex="1" connectable="0" parent="KUbMywDeBo122vvu8ljF-69">
          <mxGeometry x="-0.4562" y="-3" relative="1" as="geometry">
            <mxPoint as="offset" />
          </mxGeometry>
        </mxCell>
        <mxCell id="KUbMywDeBo122vvu8ljF-73" value="" style="endArrow=none;html=1;rounded=0;exitX=0.989;exitY=0.368;exitDx=0;exitDy=0;exitPerimeter=0;entryX=0.414;entryY=-0.04;entryDx=0;entryDy=0;entryPerimeter=0;fillColor=#d5e8d4;strokeColor=#82b366;" edge="1" parent="1" source="KUbMywDeBo122vvu8ljF-1" target="KUbMywDeBo122vvu8ljF-6">
          <mxGeometry width="50" height="50" relative="1" as="geometry">
            <mxPoint x="370" y="610" as="sourcePoint" />
            <mxPoint x="420" y="560" as="targetPoint" />
            <Array as="points">
              <mxPoint x="80" y="447" />
              <mxPoint x="80" y="500" />
              <mxPoint x="281" y="500" />
              <mxPoint x="281" y="550" />
            </Array>
          </mxGeometry>
        </mxCell>
        <mxCell id="KUbMywDeBo122vvu8ljF-75" value="Clk" style="edgeLabel;html=1;align=center;verticalAlign=middle;resizable=0;points=[];" vertex="1" connectable="0" parent="KUbMywDeBo122vvu8ljF-73">
          <mxGeometry x="-0.808" y="2" relative="1" as="geometry">
            <mxPoint as="offset" />
          </mxGeometry>
        </mxCell>
        <mxCell id="KUbMywDeBo122vvu8ljF-76" value="" style="endArrow=classic;html=1;rounded=0;entryX=0.5;entryY=1;entryDx=0;entryDy=0;fillColor=#d5e8d4;strokeColor=#82b366;endFill=1;" edge="1" parent="1" target="KUbMywDeBo122vvu8ljF-14">
          <mxGeometry width="50" height="50" relative="1" as="geometry">
            <mxPoint x="280" y="520" as="sourcePoint" />
            <mxPoint x="320" y="500" as="targetPoint" />
            <Array as="points">
              <mxPoint x="450" y="520" />
            </Array>
          </mxGeometry>
        </mxCell>
      </root>
    </mxGraphModel>
  </diagram>
</mxfile>
